<mxfile host="app.diagrams.net" modified="2022-02-17T16:33:17.756Z" agent="5.0 (X11; Linux x86_64) AppleWebKit/537.36 (KHTML, like Gecko) Chrome/97.0.4692.71 Safari/537.36" etag="mtLjDHjAmABGXG6PRsXo" version="16.5.6" type="github">
  <diagram id="8GP8Emlehn2mi4uzZjnm" name="Page-1">
    <mxGraphModel dx="1506" dy="828" grid="1" gridSize="10" guides="1" tooltips="1" connect="1" arrows="1" fold="1" page="1" pageScale="1" pageWidth="827" pageHeight="1169" background="#FFFFFF" math="0" shadow="0">
      <root>
        <mxCell id="0" />
        <mxCell id="1" parent="0" />
        <mxCell id="w2riFLPcA7toa7N1uqPu-16" style="edgeStyle=orthogonalEdgeStyle;rounded=0;orthogonalLoop=1;jettySize=auto;html=1;entryX=0.5;entryY=0;entryDx=0;entryDy=0;" edge="1" parent="1" source="w2riFLPcA7toa7N1uqPu-8" target="w2riFLPcA7toa7N1uqPu-11">
          <mxGeometry relative="1" as="geometry" />
        </mxCell>
        <mxCell id="w2riFLPcA7toa7N1uqPu-8" value="Enter website" style="rounded=0;whiteSpace=wrap;html=1;fillColor=#dae8fc;strokeColor=#6c8ebf;shadow=1;" vertex="1" parent="1">
          <mxGeometry x="40" y="210" width="120" height="60" as="geometry" />
        </mxCell>
        <mxCell id="w2riFLPcA7toa7N1uqPu-10" value="Actor" style="shape=umlActor;verticalLabelPosition=bottom;verticalAlign=top;html=1;outlineConnect=0;" vertex="1" parent="1">
          <mxGeometry x="85" y="30" width="30" height="60" as="geometry" />
        </mxCell>
        <mxCell id="w2riFLPcA7toa7N1uqPu-24" value="Yes" style="edgeStyle=orthogonalEdgeStyle;rounded=0;orthogonalLoop=1;jettySize=auto;html=1;fontSize=14;" edge="1" parent="1" source="w2riFLPcA7toa7N1uqPu-11" target="w2riFLPcA7toa7N1uqPu-23">
          <mxGeometry relative="1" as="geometry" />
        </mxCell>
        <mxCell id="w2riFLPcA7toa7N1uqPu-31" value="" style="edgeStyle=orthogonalEdgeStyle;rounded=0;orthogonalLoop=1;jettySize=auto;html=1;fontSize=14;" edge="1" parent="1" source="w2riFLPcA7toa7N1uqPu-11" target="w2riFLPcA7toa7N1uqPu-19">
          <mxGeometry relative="1" as="geometry" />
        </mxCell>
        <mxCell id="w2riFLPcA7toa7N1uqPu-11" value="Have an account?" style="rhombus;whiteSpace=wrap;html=1;fillColor=#fff2cc;strokeColor=#d6b656;shadow=1;" vertex="1" parent="1">
          <mxGeometry x="50" y="300.5" width="100" height="99" as="geometry" />
        </mxCell>
        <mxCell id="w2riFLPcA7toa7N1uqPu-15" style="edgeStyle=orthogonalEdgeStyle;rounded=0;orthogonalLoop=1;jettySize=auto;html=1;entryX=0.5;entryY=0;entryDx=0;entryDy=0;" edge="1" parent="1" source="w2riFLPcA7toa7N1uqPu-13" target="w2riFLPcA7toa7N1uqPu-8">
          <mxGeometry relative="1" as="geometry" />
        </mxCell>
        <mxCell id="w2riFLPcA7toa7N1uqPu-13" value="Start" style="rounded=1;whiteSpace=wrap;html=1;arcSize=17;fillColor=#ffe6cc;strokeColor=#d79b00;shadow=1;" vertex="1" parent="1">
          <mxGeometry x="40" y="120" width="120" height="60" as="geometry" />
        </mxCell>
        <mxCell id="w2riFLPcA7toa7N1uqPu-30" value="" style="edgeStyle=orthogonalEdgeStyle;rounded=0;orthogonalLoop=1;jettySize=auto;fontSize=14;html=1;" edge="1" parent="1" source="w2riFLPcA7toa7N1uqPu-19" target="w2riFLPcA7toa7N1uqPu-29">
          <mxGeometry relative="1" as="geometry" />
        </mxCell>
        <mxCell id="w2riFLPcA7toa7N1uqPu-19" value="Sign up" style="whiteSpace=wrap;html=1;fillColor=#dae8fc;strokeColor=#6c8ebf;shadow=1;" vertex="1" parent="1">
          <mxGeometry x="280" y="320" width="120" height="60" as="geometry" />
        </mxCell>
        <mxCell id="w2riFLPcA7toa7N1uqPu-36" value="" style="edgeStyle=orthogonalEdgeStyle;rounded=0;orthogonalLoop=1;jettySize=auto;html=1;fontSize=14;" edge="1" parent="1" source="w2riFLPcA7toa7N1uqPu-23" target="w2riFLPcA7toa7N1uqPu-35">
          <mxGeometry relative="1" as="geometry" />
        </mxCell>
        <mxCell id="w2riFLPcA7toa7N1uqPu-23" value="Login" style="whiteSpace=wrap;html=1;fillColor=#dae8fc;strokeColor=#6c8ebf;shadow=1;" vertex="1" parent="1">
          <mxGeometry x="40" y="470" width="120" height="60" as="geometry" />
        </mxCell>
        <mxCell id="w2riFLPcA7toa7N1uqPu-25" value="&lt;h1&gt;User Producer onboarding&lt;br&gt;&lt;br&gt;&lt;/h1&gt;" style="text;html=1;strokeColor=none;fillColor=none;spacing=5;spacingTop=-20;whiteSpace=wrap;overflow=hidden;rounded=0;" vertex="1" parent="1">
          <mxGeometry x="561" y="10" width="239" height="70" as="geometry" />
        </mxCell>
        <mxCell id="w2riFLPcA7toa7N1uqPu-26" value="" style="endArrow=classic;html=1;rounded=0;entryX=0;entryY=0.5;entryDx=0;entryDy=0;" edge="1" parent="1" target="w2riFLPcA7toa7N1uqPu-19">
          <mxGeometry relative="1" as="geometry">
            <mxPoint x="150" y="349.5" as="sourcePoint" />
            <mxPoint x="250" y="349.5" as="targetPoint" />
          </mxGeometry>
        </mxCell>
        <mxCell id="w2riFLPcA7toa7N1uqPu-27" value="No" style="edgeLabel;resizable=0;html=1;align=center;verticalAlign=middle;fontSize=14;" connectable="0" vertex="1" parent="w2riFLPcA7toa7N1uqPu-26">
          <mxGeometry relative="1" as="geometry" />
        </mxCell>
        <mxCell id="w2riFLPcA7toa7N1uqPu-32" value="" style="edgeStyle=orthogonalEdgeStyle;rounded=0;orthogonalLoop=1;jettySize=auto;html=1;fontSize=14;" edge="1" parent="1" source="w2riFLPcA7toa7N1uqPu-29" target="w2riFLPcA7toa7N1uqPu-23">
          <mxGeometry relative="1" as="geometry" />
        </mxCell>
        <mxCell id="w2riFLPcA7toa7N1uqPu-29" value="Validate account by email" style="whiteSpace=wrap;html=1;fillColor=#dae8fc;strokeColor=#6c8ebf;shadow=1;" vertex="1" parent="1">
          <mxGeometry x="280" y="470" width="120" height="60" as="geometry" />
        </mxCell>
        <mxCell id="w2riFLPcA7toa7N1uqPu-38" value="Yes" style="edgeStyle=orthogonalEdgeStyle;rounded=0;orthogonalLoop=1;jettySize=auto;html=1;fontSize=14;shadow=0;" edge="1" parent="1" source="w2riFLPcA7toa7N1uqPu-35" target="w2riFLPcA7toa7N1uqPu-37">
          <mxGeometry relative="1" as="geometry" />
        </mxCell>
        <mxCell id="w2riFLPcA7toa7N1uqPu-41" value="No" style="edgeStyle=orthogonalEdgeStyle;rounded=0;orthogonalLoop=1;jettySize=auto;html=1;fontSize=14;shadow=0;" edge="1" parent="1" source="w2riFLPcA7toa7N1uqPu-35" target="w2riFLPcA7toa7N1uqPu-40">
          <mxGeometry relative="1" as="geometry" />
        </mxCell>
        <mxCell id="w2riFLPcA7toa7N1uqPu-35" value="User has already passed an onboarding?" style="rhombus;whiteSpace=wrap;html=1;fillColor=#fff2cc;strokeColor=#d6b656;shadow=1;rounded=0;" vertex="1" parent="1">
          <mxGeometry x="35" y="590" width="130" height="140" as="geometry" />
        </mxCell>
        <mxCell id="w2riFLPcA7toa7N1uqPu-37" value="Welcome to your homepage" style="whiteSpace=wrap;html=1;fillColor=#d5e8d4;strokeColor=#82b366;shadow=1;" vertex="1" parent="1">
          <mxGeometry x="40" y="850" width="120" height="60" as="geometry" />
        </mxCell>
        <mxCell id="w2riFLPcA7toa7N1uqPu-39" value="" style="endArrow=none;dashed=1;html=1;dashPattern=1 3;strokeWidth=2;rounded=0;fontSize=14;exitX=0.5;exitY=1;exitDx=0;exitDy=0;shadow=0;" edge="1" parent="1" source="w2riFLPcA7toa7N1uqPu-37">
          <mxGeometry width="50" height="50" relative="1" as="geometry">
            <mxPoint x="380" y="770" as="sourcePoint" />
            <mxPoint x="100" y="1000" as="targetPoint" />
          </mxGeometry>
        </mxCell>
        <mxCell id="w2riFLPcA7toa7N1uqPu-43" value="&lt;br&gt;&lt;font face=&quot;helvetica&quot;&gt;&lt;br&gt;&lt;/font&gt;" style="edgeStyle=orthogonalEdgeStyle;rounded=0;orthogonalLoop=1;jettySize=auto;html=1;fontSize=14;shadow=0;" edge="1" parent="1" source="w2riFLPcA7toa7N1uqPu-40" target="w2riFLPcA7toa7N1uqPu-42">
          <mxGeometry relative="1" as="geometry" />
        </mxCell>
        <mxCell id="w2riFLPcA7toa7N1uqPu-40" value="Create Farm" style="whiteSpace=wrap;html=1;fillColor=#dae8fc;strokeColor=#6c8ebf;shadow=1;" vertex="1" parent="1">
          <mxGeometry x="280" y="630" width="120" height="60" as="geometry" />
        </mxCell>
        <mxCell id="w2riFLPcA7toa7N1uqPu-49" value="Mail to support" style="edgeStyle=orthogonalEdgeStyle;rounded=0;orthogonalLoop=1;jettySize=auto;html=1;fontSize=14;shadow=0;" edge="1" parent="1" source="w2riFLPcA7toa7N1uqPu-42" target="w2riFLPcA7toa7N1uqPu-48">
          <mxGeometry relative="1" as="geometry" />
        </mxCell>
        <mxCell id="w2riFLPcA7toa7N1uqPu-42" value="Create Company" style="whiteSpace=wrap;html=1;fillColor=#dae8fc;strokeColor=#6c8ebf;shadow=1;" vertex="1" parent="1">
          <mxGeometry x="520" y="631" width="120" height="60" as="geometry" />
        </mxCell>
        <mxCell id="w2riFLPcA7toa7N1uqPu-50" value="Validated" style="edgeStyle=orthogonalEdgeStyle;rounded=0;orthogonalLoop=1;jettySize=auto;html=1;entryX=1;entryY=0.5;entryDx=0;entryDy=0;fontSize=14;shadow=0;" edge="1" parent="1" source="w2riFLPcA7toa7N1uqPu-48" target="w2riFLPcA7toa7N1uqPu-37">
          <mxGeometry relative="1" as="geometry" />
        </mxCell>
        <mxCell id="w2riFLPcA7toa7N1uqPu-52" value="Closed" style="edgeStyle=orthogonalEdgeStyle;rounded=0;orthogonalLoop=1;jettySize=auto;html=1;fontSize=14;shadow=0;" edge="1" parent="1" source="w2riFLPcA7toa7N1uqPu-48" target="w2riFLPcA7toa7N1uqPu-51">
          <mxGeometry relative="1" as="geometry" />
        </mxCell>
        <mxCell id="w2riFLPcA7toa7N1uqPu-48" value="Support decision" style="rhombus;whiteSpace=wrap;html=1;fillColor=#fff2cc;strokeColor=#d6b656;shadow=1;" vertex="1" parent="1">
          <mxGeometry x="520" y="821" width="120" height="120" as="geometry" />
        </mxCell>
        <mxCell id="w2riFLPcA7toa7N1uqPu-51" value="User has error page and is blocked" style="whiteSpace=wrap;html=1;fillColor=#f8cecc;strokeColor=#b85450;shadow=1;" vertex="1" parent="1">
          <mxGeometry x="520" y="1031" width="120" height="60" as="geometry" />
        </mxCell>
        <mxCell id="w2riFLPcA7toa7N1uqPu-53" value="Step" style="rounded=0;whiteSpace=wrap;html=1;shadow=1;fontSize=14;fillColor=#dae8fc;strokeColor=#6c8ebf;" vertex="1" parent="1">
          <mxGeometry x="554" y="168" width="120" height="60" as="geometry" />
        </mxCell>
        <mxCell id="w2riFLPcA7toa7N1uqPu-54" value="Condition" style="rhombus;whiteSpace=wrap;html=1;rounded=0;shadow=1;fontSize=14;fillColor=#fff2cc;strokeColor=#d6b656;" vertex="1" parent="1">
          <mxGeometry x="709" y="161" width="80" height="80" as="geometry" />
        </mxCell>
        <mxCell id="w2riFLPcA7toa7N1uqPu-55" value="Main path" style="rounded=0;whiteSpace=wrap;html=1;shadow=1;fontSize=14;fillColor=#d5e8d4;strokeColor=#82b366;" vertex="1" parent="1">
          <mxGeometry x="554" y="248" width="120" height="60" as="geometry" />
        </mxCell>
        <mxCell id="w2riFLPcA7toa7N1uqPu-56" value="Error path" style="rounded=0;whiteSpace=wrap;html=1;shadow=1;fontSize=14;fillColor=#f8cecc;strokeColor=#b85450;" vertex="1" parent="1">
          <mxGeometry x="690" y="250" width="120" height="60" as="geometry" />
        </mxCell>
        <mxCell id="w2riFLPcA7toa7N1uqPu-59" value="Legend" style="swimlane;rounded=0;shadow=1;fontSize=19;" vertex="1" parent="1">
          <mxGeometry x="540" y="98" width="280" height="242" as="geometry" />
        </mxCell>
      </root>
    </mxGraphModel>
  </diagram>
</mxfile>
